Coordinates
version=1
nRows=5
nColumns=40
inDegrees=yes

Units are S.I. units (second, meters, Newtons, ...)
Angles are in degrees.

endheader
time	pelvis_tilt	pelvis_list	pelvis_rotation	pelvis_tx	pelvis_ty	pelvis_tz	hip_flexion_r	hip_adduction_r	hip_rotation_r	knee_angle_r	knee_angle_r_beta	ankle_angle_r	subtalar_angle_r	mtp_angle_r	hip_flexion_l	hip_adduction_l	hip_rotation_l	knee_angle_l	knee_angle_l_beta	ankle_angle_l	subtalar_angle_l	mtp_angle_l	lumbar_extension	lumbar_bending	lumbar_rotation	arm_flex_r	arm_add_r	arm_rot_r	elbow_flex_r	pro_sup_r	wrist_flex_r	wrist_dev_r	arm_flex_l	arm_add_l	arm_rot_l	elbow_flex_l	pro_sup_l	wrist_flex_l	wrist_dev_l
      0.00000000	     -3.09109245	     -0.61444383	     -1.47013628	     -0.95137105	      0.88021257	      1.39821842	     27.17568161	     -6.70434777	     -7.86283532	    -63.01946698	     -1.09989719	      0.35112385	    -16.86131530	     20.32750340	     11.20973866	     -4.77738132	      6.30893665	    -29.48267053	     -0.51456967	     15.60588486	     11.72334550	     -3.25668198	     -6.96117466	     -0.59333863	    -10.21117245	     -9.72106554	     -8.11672961	    -11.34071805	     30.83114639	     89.95437384	      0.00000000	      0.00000000	     -1.59470772	     10.86258125	     15.99126105	     45.29137596	     89.95437384	      0.00000000	      0.00000000
      0.01000000	     -3.04030579	     -0.75793914	     -0.88131659	     -0.94024320	      0.88074988	      1.39927012	     28.20166446	     -6.46344595	     -7.93300686	    -61.04944030	     -1.06551374	      1.04175526	    -17.04329021	     20.18921245	      9.99386323	     -4.54533408	      6.15256733	    -28.84684363	     -0.50347240	     15.88559267	     11.40421235	     -3.31825418	     -6.98923269	     -0.49789350	    -10.69088424	     -9.87082964	     -7.96523333	    -11.93783952	     29.82806345	     89.95437384	      0.00000000	      0.00000000	     -1.30593313	     11.06135880	     15.86043518	     47.55899882	     89.95437384	      0.00000000	      0.00000000
      0.02000000	     -2.93588338	     -0.86371995	     -0.40251867	     -0.92908712	      0.88119796	      1.40041739	     29.03815005	     -6.30470163	     -8.12374109	    -58.71780751	     -1.02481907	      1.55631345	    -16.98243953	     20.06865376	      8.67634022	     -4.35362282	      6.03262104	    -28.09820596	     -0.49040621	     15.94927778	     10.86236433	     -3.37846355	     -7.10661192	     -0.44012581	    -11.11188169	     -9.98824210	     -7.86763010	    -12.50886580	     28.93084324	     89.95437384	      0.00000000	      0.00000000	     -1.03081996	     11.29786691	     15.69719635	     49.83945877	     89.95437384	      0.00000000	      0.00000000
      0.03000000	     -2.61641866	     -0.93419206	      0.24619785	     -0.91762849	      0.88181987	      1.40133317	     29.39208101	     -6.30853675	     -8.55491246	    -56.00139857	     -0.97740879	      2.14200906	    -16.84916659	     20.11519170	      7.13675702	     -4.11655256	      6.11122401	    -27.40306710	     -0.47827375	     15.86932900	     10.16900865	     -3.51622818	     -7.43456937	     -0.39175676	    -11.68543560	    -10.09036152	     -7.72737195	    -13.19121480	     28.08319196	     89.95437384	      0.00000000	      0.00000000	     -0.65225676	     11.55174226	     15.62732164	     51.94172970	     89.95437384	      0.00000000	      0.00000000
      0.04000000	     -2.41634257	     -1.01699994	      0.68234254	     -0.90610015	      0.88204949	      1.40273783	     29.82592460	     -6.14320556	     -8.79575281	    -53.11240079	     -0.92698627	      2.62580620	    -16.61784366	     20.27629860	      5.70602573	     -3.79481812	      6.41147475	    -26.65241955	     -0.46517247	     15.72484482	      9.21471282	     -3.85675863	     -7.63964657	     -0.36017262	    -12.03216052	    -10.32182280	     -7.62646448	    -13.75543615	     27.46327611	     89.95437384	      0.00000000	      0.00000000	     -0.32132756	     11.84188928	     15.50802284	     54.02293125	     89.95437384	      0.00000000	      0.00000000
